<svg width="16" height="16" viewBox="0 0 16 16" fill="none" xmlns="http://www.w3.org/2000/svg">
<g clip-path="url(#clip0_17_3)">
<path d="M9.93223 15.2078L7.01223 9.90782H6.19223V15.2078H2.77223V1.16782H8.51223C9.61889 1.16782 10.5589 1.36116 11.3322 1.74782C12.1189 2.13449 12.7056 2.66782 13.0922 3.34782C13.4789 4.01449 13.6722 4.76116 13.6722 5.58782C13.6722 6.52116 13.4056 7.35449 12.8722 8.08782C12.3522 8.82116 11.5789 9.34116 10.5522 9.64782L13.7922 15.2078H9.93223ZM6.19223 7.48782H8.31223C8.93889 7.48782 9.40556 7.33449 9.71223 7.02782C10.0322 6.72116 10.1922 6.28782 10.1922 5.72782C10.1922 5.19449 10.0322 4.77449 9.71223 4.46782C9.40556 4.16116 8.93889 4.00782 8.31223 4.00782H6.19223V7.48782Z" fill="#00A3FF"/>
<path d="M12.5457 4.63082C12.5457 5.44415 12.359 6.19082 11.9857 6.87082C11.6124 7.53748 11.039 8.07748 10.2657 8.49082C9.49238 8.90415 8.53238 9.11082 7.38571 9.11082H5.26571V14.1508H1.84571V0.110817H7.38571C8.50571 0.110817 9.45238 0.304151 10.2257 0.690817C10.999 1.07748 11.579 1.61082 11.9657 2.29082C12.3524 2.97082 12.5457 3.75082 12.5457 4.63082ZM7.12571 6.39082C7.77905 6.39082 8.26571 6.23748 8.58571 5.93082C8.90571 5.62415 9.06571 5.19082 9.06571 4.63082C9.06571 4.07082 8.90571 3.63748 8.58571 3.33082C8.26571 3.02415 7.77905 2.87082 7.12571 2.87082H5.26571V6.39082H7.12571Z" fill="#252525"/>
</g>
<defs>
<clipPath id="clip0_17_3">
<rect width="16" height="16" fill="white"/>
</clipPath>
</defs>
</svg>
