<svg width="64" height="64" viewBox="0 0 64 64" fill="none" xmlns="http://www.w3.org/2000/svg">
<g clip-path="url(#clip0_18_15)">
<path d="M39.7765 60.8354L28.0965 39.6354H24.8165V60.8354H11.1365V4.67545H34.0965C38.5232 4.67545 42.2832 5.44878 45.3765 6.99545C48.5232 8.54211 50.8698 10.6754 52.4165 13.3954C53.9632 16.0621 54.7365 19.0488 54.7365 22.3554C54.7365 26.0888 53.6699 29.4221 51.5365 32.3554C49.4565 35.2888 46.3632 37.3688 42.2565 38.5954L55.2165 60.8354H39.7765ZM24.8165 29.9554H33.2965C35.8032 29.9554 37.6698 29.3421 38.8965 28.1154C40.1765 26.8888 40.8165 25.1554 40.8165 22.9154C40.8165 20.7821 40.1765 19.1021 38.8965 17.8754C37.6698 16.6488 35.8032 16.0354 33.2965 16.0354H24.8165V29.9554Z" fill="#00A3FF"/>
<path d="M52.5837 21.0845C52.5837 24.3379 51.8371 27.3245 50.3437 30.0445C48.8504 32.7112 46.5571 34.8712 43.4637 36.5245C40.3704 38.1779 36.5304 39.0046 31.9437 39.0046H23.4637V59.1646H9.78373V3.00455H31.9437C36.4237 3.00455 40.2104 3.77788 43.3037 5.32455C46.3971 6.87121 48.7171 9.00455 50.2637 11.7245C51.8104 14.4445 52.5837 17.5645 52.5837 21.0845ZM30.9037 28.1245C33.5171 28.1245 35.4637 27.5112 36.7437 26.2845C38.0237 25.0579 38.6637 23.3245 38.6637 21.0845C38.6637 18.8446 38.0237 17.1112 36.7437 15.8846C35.4637 14.6579 33.5171 14.0445 30.9037 14.0445H23.4637V28.1245H30.9037Z" fill="#252525"/>
</g>
<defs>
<clipPath id="clip0_18_15">
<rect width="64" height="64" fill="white"/>
</clipPath>
</defs>
</svg>
