<svg width="32" height="32" viewBox="0 0 32 32" fill="none" xmlns="http://www.w3.org/2000/svg">
<g clip-path="url(#clip0_17_11)">
<path d="M19.7421 30.6392L13.9021 20.0392H12.2621V30.6392H5.42214V2.55922H16.9021C19.1155 2.55922 20.9955 2.94589 22.5421 3.71922C24.1155 4.49255 25.2888 5.55922 26.0621 6.91922C26.8355 8.25255 27.2221 9.74589 27.2221 11.3992C27.2221 13.2659 26.6888 14.9326 25.6221 16.3992C24.5821 17.8659 23.0355 18.9059 20.9821 19.5192L27.4621 30.6392H19.7421ZM12.2621 15.1992H16.5021C17.7555 15.1992 18.6888 14.8926 19.3021 14.2792C19.9421 13.6659 20.2621 12.7992 20.2621 11.6792C20.2621 10.6126 19.9421 9.77255 19.3021 9.15922C18.6888 8.54589 17.7555 8.23922 16.5021 8.23922H12.2621V15.1992Z" fill="#00A3FF"/>
<path d="M25.9381 10.3208C25.9381 11.9475 25.5648 13.4408 24.8181 14.8008C24.0714 16.1342 22.9248 17.2142 21.3781 18.0408C19.8314 18.8675 17.9114 19.2808 15.6181 19.2808H11.3781V29.3608H4.53811V1.28084H15.6181C17.8581 1.28084 19.7514 1.66751 21.2981 2.44084C22.8448 3.21417 24.0048 4.28084 24.7781 5.64084C25.5514 7.00084 25.9381 8.56084 25.9381 10.3208ZM15.0981 13.8408C16.4048 13.8408 17.3781 13.5342 18.0181 12.9208C18.6581 12.3075 18.9781 11.4408 18.9781 10.3208C18.9781 9.20084 18.6581 8.33417 18.0181 7.72084C17.3781 7.10751 16.4048 6.80084 15.0981 6.80084H11.3781V13.8408H15.0981Z" fill="#252525"/>
</g>
<defs>
<clipPath id="clip0_17_11">
<rect width="32" height="32" fill="white"/>
</clipPath>
</defs>
</svg>
